<mxfile host="app.diagrams.net" modified="2023-04-17T08:17:44.858Z" agent="5.0 (Windows NT 10.0; Win64; x64) AppleWebKit/537.36 (KHTML, like Gecko) Chrome/112.0.0.0 Safari/537.36 Edg/112.0.1722.48" version="20.8.3" etag="wwxGEUFayNtx00AX2YI_" type="github">
  <diagram id="ELwyFsPG9pD2Z4jYOQRi" name="第 1 页">
    <mxGraphModel dx="802" dy="363" grid="1" gridSize="10" guides="1" tooltips="1" connect="1" arrows="1" fold="1" page="1" pageScale="1" pageWidth="827" pageHeight="1169" math="0" shadow="0">
      <root>
        <mxCell id="0" />
        <mxCell id="1" parent="0" />
        <mxCell id="RGVZ4ssojxoN8thKKs1--1" style="edgeStyle=orthogonalEdgeStyle;rounded=0;orthogonalLoop=1;jettySize=auto;html=1;entryX=0.5;entryY=0;entryDx=0;entryDy=0;fontSize=14;" edge="1" parent="1" source="RGVZ4ssojxoN8thKKs1--2" target="RGVZ4ssojxoN8thKKs1--4">
          <mxGeometry relative="1" as="geometry" />
        </mxCell>
        <mxCell id="RGVZ4ssojxoN8thKKs1--2" value="&lt;font style=&quot;font-size: 14px;&quot;&gt;通过服务器将图像采集设备获取的图片传输至计算机。&lt;/font&gt;" style="rounded=0;whiteSpace=wrap;html=1;" vertex="1" parent="1">
          <mxGeometry x="280" y="20" width="370" height="60" as="geometry" />
        </mxCell>
        <mxCell id="RGVZ4ssojxoN8thKKs1--3" style="edgeStyle=orthogonalEdgeStyle;rounded=0;orthogonalLoop=1;jettySize=auto;html=1;exitX=0.75;exitY=1;exitDx=0;exitDy=0;entryX=0.75;entryY=0.833;entryDx=0;entryDy=0;entryPerimeter=0;fontSize=14;" edge="1" parent="1" source="RGVZ4ssojxoN8thKKs1--4" target="RGVZ4ssojxoN8thKKs1--4">
          <mxGeometry relative="1" as="geometry" />
        </mxCell>
        <mxCell id="RGVZ4ssojxoN8thKKs1--4" value="&lt;span style=&quot;font-size: 14px;&quot;&gt;利用OpenCv工具获取所述的目标图像。&lt;/span&gt;" style="rounded=0;whiteSpace=wrap;html=1;" vertex="1" parent="1">
          <mxGeometry x="280" y="100" width="370" height="60" as="geometry" />
        </mxCell>
        <mxCell id="RGVZ4ssojxoN8thKKs1--5" value="" style="endArrow=classic;html=1;rounded=0;fontSize=14;" edge="1" parent="1">
          <mxGeometry width="50" height="50" relative="1" as="geometry">
            <mxPoint x="650" y="130" as="sourcePoint" />
            <mxPoint x="710" y="120" as="targetPoint" />
          </mxGeometry>
        </mxCell>
        <mxCell id="RGVZ4ssojxoN8thKKs1--6" value="" style="endArrow=classic;html=1;rounded=0;fontSize=14;" edge="1" parent="1">
          <mxGeometry width="50" height="50" relative="1" as="geometry">
            <mxPoint x="650" y="50" as="sourcePoint" />
            <mxPoint x="710" y="40" as="targetPoint" />
          </mxGeometry>
        </mxCell>
        <mxCell id="RGVZ4ssojxoN8thKKs1--7" value="S11" style="text;html=1;align=center;verticalAlign=middle;resizable=0;points=[];autosize=1;strokeColor=none;fillColor=none;fontSize=14;" vertex="1" parent="1">
          <mxGeometry x="698" y="25" width="50" height="30" as="geometry" />
        </mxCell>
        <mxCell id="RGVZ4ssojxoN8thKKs1--8" value="S12" style="text;html=1;align=center;verticalAlign=middle;resizable=0;points=[];autosize=1;strokeColor=none;fillColor=none;fontSize=14;" vertex="1" parent="1">
          <mxGeometry x="697" y="106" width="50" height="30" as="geometry" />
        </mxCell>
      </root>
    </mxGraphModel>
  </diagram>
</mxfile>
